Coordinates
version=1
nRows=16
nColumns=22
inDegrees=yes

Units are S.I. units (second, meters, Newtons, ...)
If the header above contains a line with 'inDegrees', this indicates whether rotational values are in degrees (yes) or radians (no).

endheader
time	pelvis_tilt	pelvis_list	pelvis_rotation	pelvis_tx	pelvis_ty	pelvis_tz	hip_flexion_r	hip_adduction_r	hip_rotation_r	knee_angle_r	ankle_angle_r	subtalar_angle_r	hip_flexion_l	hip_adduction_l	hip_rotation_l	knee_angle_l	ankle_angle_l	subtalar_angle_l	lumbar_extension	lumbar_bending	lumbar_rotation
      0.01000000	     -5.06624692	     -3.54200428	      1.18773362	      1.08942386	      0.94289199	     -0.28525725	      7.69606981	      2.73047020	     -5.11781236	    -11.70870972	      9.59123755	     -2.49903033	      8.77382665	     -6.61693588	     -6.22333793	    -15.24041397	     10.90588673	     -2.57262755	     -1.21043186	      0.95623572	     -0.86837718
      0.02000000	     -5.06866183	     -3.54045345	      1.18401490	      1.08938804	      0.94289216	     -0.28525414	      7.70034816	      2.72920578	     -5.11768791	    -11.70742554	      9.59129857	     -2.49931220	      8.77615195	     -6.61491557	     -6.22386155	    -15.23690216	     10.90556090	     -2.57275881	     -1.21974722	      0.96321212	     -0.87085030
      0.03000000	     -5.06678269	     -3.54055327	      1.17873697	      1.08934989	      0.94289519	     -0.28526042	      7.70916057	      2.72859738	     -5.10838845	    -11.72334882	      9.58930535	     -2.50045069	      8.77079265	     -6.61422399	     -6.22855812	    -15.22873477	     10.90212563	     -2.57344837	     -1.23461781	      0.97862783	     -0.89419999
      0.04000000	     -5.06986101	     -3.53854508	      1.17500423	      1.08930678	      0.94289285	     -0.28525442	      7.71440771	      2.72640050	     -5.10770203	    -11.72074005	      9.58969698	     -2.50067746	      8.77345643	     -6.61241111	     -6.22979620	    -15.22402396	     10.90172825	     -2.57359703	     -1.24654190	      0.98557695	     -0.89922186
      0.05000000	     -5.06780772	     -3.53662117	      1.17160310	      1.08928170	      0.94289625	     -0.28526406	      7.72083812	      2.72384923	     -5.09543925	    -11.73469662	      9.58872749	     -2.50124527	      8.76566911	     -6.60940928	     -6.23772537	    -15.21308844	     10.89734589	     -2.57469024	     -1.25978742	      1.00044043	     -0.93878009
      0.06000000	     -5.06763294	     -3.53359927	      1.17049848	      1.08925700	      0.94289713	     -0.28527052	      7.72322691	      2.71996085	     -5.08938821	    -11.73732602	      9.58981761	     -2.50155454	      8.76165659	     -6.60577749	     -6.24218025	    -15.20388497	     10.89253478	     -2.57639932	     -1.27167694	      1.01042205	     -0.96836907
      0.07000000	     -5.06866924	     -3.53009433	      1.17000171	      1.08925021	      0.94289628	     -0.28528027	      7.72368263	      2.71571042	     -5.08582278	    -11.73613119	      9.59113917	     -2.50151692	      8.75821040	     -6.60129250	     -6.24478118	    -15.19598726	     10.88794096	     -2.57844651	     -1.27908693	      1.01965725	     -0.99884220
      0.08000000	     -5.07089036	     -3.52664284	      1.17206711	      1.08924949	      0.94289355	     -0.28529231	      7.72310181	      2.71128738	     -5.08454906	    -11.73170294	      9.59258800	     -2.50117529	      8.75719414	     -6.59677654	     -6.24574573	    -15.18925373	     10.88343809	     -2.58075631	     -1.28308679	      1.02813712	     -1.03157163
      0.09000000	     -5.07469764	     -3.52355876	      1.17722972	      1.08925569	      0.94288735	     -0.28530937	      7.72208198	      2.70711983	     -5.08665841	    -11.72382809	      9.59403481	     -2.50048970	      8.75998331	     -6.59255183	     -6.24413128	    -15.18630323	     10.87895935	     -2.58354173	     -1.28383481	      1.03605976	     -1.06756023
      0.10000000	     -5.07790233	     -3.52143402	      1.17430319	      1.08925797	      0.94288307	     -0.28531889	      7.72317624	      2.70409537	     -5.08792915	    -11.72047895	      9.59444725	     -2.50044243	      8.76243563	     -6.58990172	     -6.24357871	    -15.18617486	     10.87852273	     -2.58387396	     -1.28778878	      1.04327133	     -1.07340280
      0.11000000	     -5.08478268	     -3.52031175	      1.18496350	      1.08927829	      0.94287076	     -0.28534417	      7.72183681	      2.70134326	     -5.09128483	    -11.71005013	      9.59593030	     -2.49956047	      8.77618691	     -6.58850507	     -6.24469899	    -15.19512845	     10.87667568	     -2.58695089	     -1.28132636	      1.05119304	     -1.12506013
      0.12000000	     -5.08785893	     -3.51868152	      1.18223854	      1.08928272	      0.94286382	     -0.28536092	      7.72310627	      2.69833362	     -5.09328735	    -11.70665631	      9.59638327	     -2.49958667	      8.77972617	     -6.58611121	     -6.24345645	    -15.19716422	     10.87661136	     -2.58721810	     -1.28476822	      1.05882700	     -1.12805028
      0.13000000	     -5.11709143	     -3.53619793	      1.21426246	      1.08926973	      0.94280501	     -0.28542350	      7.74689129	      2.71136872	     -5.13804220	    -11.69377230	      9.59532779	     -2.49890383	      8.84688570	     -6.60100839	     -6.20500976	    -15.24826010	     10.88825306	     -2.59870147	     -1.25516728	      1.08668230	     -1.18037318
      0.14000000	     -5.11970790	     -3.53445451	      1.20964572	      1.08927385	      0.94279677	     -0.28543522	      7.74838678	      2.70870316	     -5.13777082	    -11.69223790	      9.59543385	     -2.49895105	      8.84954757	     -6.59908464	     -6.20544510	    -15.24915223	     10.88842075	     -2.59881477	     -1.25959008	      1.09139510	     -1.18368815
      0.15000000	     -5.12188363	     -3.53266810	      1.20536768	      1.08928290	      0.94279006	     -0.28546081	      7.74964657	      2.70594859	     -5.13688882	    -11.69070792	      9.59573037	     -2.49906656	      8.85234996	     -6.59520399	     -6.20639212	    -15.25326213	     10.88874801	     -2.59905861	     -1.26352874	      1.09791410	     -1.18792778
      0.16000000	     -5.12230004	     -3.53000996	      1.20715610	      1.08927540	      0.94278120	     -0.28548744	      7.75110200	      2.70190533	     -5.12658968	    -11.69245881	      9.59787248	     -2.50002837	      8.87053156	     -6.59323574	     -6.21389345	    -15.28441223	     10.89382908	     -2.60230593	     -1.27107438	      1.10058109	     -1.20705285
